<svg xmlns="http://www.w3.org/2000/svg" viewBox="0 0 416 757.95"><defs><style>.cls-1{fill:none;stroke:#000;stroke-miterlimit:10;stroke-width:0.5px;}</style></defs><g id="Layer_2" data-name="Layer 2"><g id="Layer_1-2" data-name="Layer 1"><path class="cls-1" d="M.25,10.7h0v11s119.92,7,119.92,296h-9.3v20s-8.27,5-8.27,8,5.17,4,5.17,4l1,7c4.14,34,24.81,46,34.12,52s30,6,37.22,6,13.44,3,13.44,13-11.38,10-11.38,10v6c-18.61,2-39.28,21-39.28,21H115l-17.57,48v131l-19.64,58v52l130.26,4"/><path class="cls-1" d="M.25,10.7S74.69.7,208.05.7"/><path class="cls-1" d="M415.75,10.25h0v11s-119.92,7-119.92,296h9.3v20s8.27,5,8.27,8-5.17,4-5.17,4l-1,7c-4.14,34-24.81,46-34.12,52s-30,6-37.22,6-13.44,3-13.44,13,11.38,10,11.38,10v6c18.61,2,39.28,21,39.28,21H301l17.57,48v131l19.64,58v52l-130.26,4"/><path class="cls-1" d="M415.75,10.25S341.31.25,208,.25"/></g></g></svg>